<?xml version="1.0" encoding="utf-8"?>
<!-- Uploaded to: SVG Repo, www.svgrepo.com, Generator: SVG Repo Mixer Tools -->
<svg width="800px" height="800px" viewBox="0 0 1024 1024" class="icon"  version="1.1" xmlns="http://www.w3.org/2000/svg"><path d="M583.6 479.3c82.5 29.1 141.7 107.8 141.7 200.3 0 117.3-95.1 212.4-212.4 212.4s-212.4-95.1-212.4-212.4c0-89.8 55.7-166.6 134.5-197.7V233.5h148.7l-0.1 245.8" fill="#EDEDED" /><path d="M466.8 148.6h85v85h-85z" fill="#EFE2C2" /><path d="M704.2 756.8c-11.1-11.5-20.4-24.8-42.1-24.8-38.2 0-38.2 41.2-76.4 41.2S547.5 732 509.3 732s-38.2 41.2-76.4 41.2-38.2-41.2-76.4-41.2c-21.7 0-31.1 13.3-42.2 24.8 0 0 56.4 135.2 194.9 135.2S703.9 773.6 708 763.4l-3.8-6.6zM512.9 638.9c0 17.4-14.1 31.4-31.4 31.4-17.4 0-31.4-14.1-31.4-31.4 0-17.4 14.1-31.4 31.4-31.4 17.3 0 31.4 14.1 31.4 31.4zM587.6 566.7c0 12-9.7 21.6-21.6 21.6s-21.6-9.7-21.6-21.6c0-11.9 9.7-21.6 21.6-21.6s21.6 9.7 21.6 21.6z" fill="#F59558" /><path d="M727.9 771c12-28.1 18.6-59 18.6-91.4 0-93.8-56.3-178.3-141.6-214.8V233.5c0-11.7-9.5-21.2-21.2-21.2H573v-63.7c0-11.7-9.5-21.2-21.2-21.2h-85c-11.7 0-21.2 9.5-21.2 21.2v63.7H435c-11.7 0-21.2 9.5-21.2 21.2V468c-82.2 38.4-134.5 119.9-134.5 211.6 0 28.3 5.1 55.5 14.4 80.7 0.3 1.6 0.6 3.2 1.2 4.7 0.4 1 2.4 5.7 6.2 12.8 20.6 44.2 54.5 80.9 96.6 104.9 29.8 17.9 66.8 30.6 111.7 30.6 0.4 0 0.8-0.1 1.2-0.1 0.8 0 1.5 0.1 2.3 0.1 92 0 171.7-53.4 209.8-130.9 2.1-4 3.9-7.9 5.2-11.1-0.1-0.1-0.1-0.2 0-0.3zM488.1 169.8h42.5v42.5h-42.5v-42.5z m-45.3 331.9c8.1-3.2 13.5-11 13.5-19.8V254.8H562.5v222.8c-0.8 9.4 4.8 18.4 14.1 21.7C652.8 526.2 704 598.7 704 679.6c0 14.8-1.8 29.1-5 42.9-9.1-6.6-20.7-11.8-36.9-11.8-28.4 0-43.1 15.8-53.8 27.4-9.1 9.8-13.2 13.8-22.6 13.8-9.4 0-13.5-4-22.6-13.8-10.7-11.6-25.4-27.4-53.8-27.4s-43 15.8-53.7 27.4C446.5 748 442.4 752 433 752c-9.4 0-13.5-4-22.6-13.8-10.7-11.6-25.4-27.4-53.8-27.4-12.8 0-22.7 3.3-30.8 7.9-2.6-12.6-4-25.7-4-39.1-0.1-79.1 47.4-148.9 121-177.9z m-18.7 347.1c-2.6-1.5-5.3-2.9-7.7-4.4-0.2-0.1-0.4-0.2-0.6-0.4-40.3-25.3-64.4-62.2-75.1-81.9-0.2-0.5-0.5-0.9-0.7-1.4 5.4-5.2 9.5-7.5 16.5-7.5 9.5 0 13.5 4 22.6 13.8 10.7 11.6 25.4 27.4 53.8 27.4s43.1-15.8 53.8-27.4c9.1-9.8 13.2-13.8 22.6-13.8 9.4 0 13.5 4 22.6 13.8 10.7 11.6 25.4 27.4 53.7 27.4 28.4 0 43.1-15.8 53.8-27.4 9.1-9.8 13.2-13.8 22.6-13.8 9 0 13.1 3.6 21.2 12.3-15.4 27.9-67.2 104.2-172.1 105.1-31.3-0.2-60.9-8.1-87-21.8z" fill="#211F1E" /><path d="M481.4 681c23.2 0 42-18.9 42-42s-18.9-42-42-42-42 18.9-42 42 18.9 42 42 42z m0-62.9c11.5 0 20.8 9.3 20.8 20.8s-9.3 20.8-20.8 20.8-20.8-9.3-20.8-20.8 9.4-20.8 20.8-20.8zM565.9 599c17.8 0 32.3-14.5 32.3-32.3 0-17.8-14.5-32.3-32.3-32.3s-32.3 14.5-32.3 32.3c0.1 17.8 14.5 32.3 32.3 32.3z m0-43.3c6.1 0 11 4.9 11 11s-4.9 11-11 11-11-4.9-11-11c0-6 4.9-11 11-11z" fill="#211F1E" /></svg>