<?xml version="1.0" standalone="no"?>
<!DOCTYPE svg PUBLIC "-//W3C//DTD SVG 20010904//EN"
 "http://www.w3.org/TR/2001/REC-SVG-20010904/DTD/svg10.dtd">
<svg version="1.0" xmlns="http://www.w3.org/2000/svg"
 width="500.000000pt" height="500.000000pt" viewBox="0 0 500.000000 500.000000"
 preserveAspectRatio="xMidYMid meet">

<g transform="translate(0.000000,500.000000) scale(0.100000,-0.100000)"
fill="#000000" stroke="none">
<path d="M2142 4064 l-22 -15 0 -584 0 -584 -375 -751 c-373 -748 -375 -751
-375 -813 0 -72 22 -128 69 -174 60 -61 83 -63 598 -63 l463 0 0 65 0 65 -469
0 -469 0 -31 26 c-66 55 -81 16 330 836 l374 743 5 205 5 205 53 3 c36 2 52 7
52 17 0 10 -16 15 -52 17 l-53 3 -3 103 -3 102 56 0 c48 0 55 2 55 20 0 18 -7
20 -55 20 l-55 0 0 100 0 100 55 0 c48 0 55 2 55 20 0 18 -7 20 -55 20 l-55 0
0 99 0 99 148 4 c112 3 162 0 212 -13 183 -45 338 -199 403 -399 14 -41 48
-124 76 -184 28 -60 51 -115 51 -122 0 -9 -12 -14 -34 -14 -18 0 -38 -6 -44
-12 -5 -7 -12 -71 -14 -143 -5 -152 -18 -192 -76 -230 -28 -19 -57 -27 -108
-31 -45 -4 -73 -12 -81 -22 -9 -11 -13 -67 -13 -194 l0 -178 43 -46 c82 -88
216 -142 413 -168 165 -22 264 -66 352 -159 27 -30 59 -72 71 -95 47 -92 51
-133 51 -520 l0 -363 48 3 47 3 3 355 c3 398 -2 442 -62 566 -19 38 -57 94
-85 125 -101 113 -222 170 -409 195 -115 15 -227 47 -289 84 -19 11 -39 17
-45 14 -6 -4 -8 -3 -5 3 4 6 -5 21 -18 33 -24 22 -25 29 -25 135 l0 111 53 12
c84 19 86 20 115 44 82 68 115 149 116 290 1 55 5 93 10 88 10 -10 76 -1 93
12 26 20 24 63 -5 129 -61 134 -94 205 -111 239 -10 19 -24 57 -30 84 -39 158
-188 339 -345 416 -120 59 -227 80 -421 80 -129 0 -165 -3 -183 -16z"/>
<path d="M3004 1306 c-35 -15 -44 -32 -44 -80 0 -35 23 -63 76 -89 46 -24 60
-43 43 -63 -13 -16 -71 -16 -111 1 -15 6 -18 2 -18 -23 0 -34 17 -42 87 -42
53 0 88 16 102 47 24 53 6 88 -70 129 -38 21 -49 33 -47 48 3 18 10 21 58 21
49 0 55 2 58 22 3 18 -4 24 -35 32 -48 14 -61 13 -99 -3z"/>
<path d="M2740 1160 l0 -150 30 0 30 0 0 60 0 60 50 0 c47 0 50 2 50 25 0 23
-3 25 -50 25 l-50 0 0 40 0 40 55 0 c52 0 55 1 55 25 0 25 -1 25 -85 25 l-85
0 0 -150z"/>
<path d="M3200 1160 l0 -150 30 0 29 0 3 109 3 110 61 -107 61 -107 41 -3 42
-3 0 150 0 151 -31 0 -31 0 4 -110 c2 -60 3 -110 2 -110 -1 0 -30 50 -65 110
l-63 110 -43 0 -43 0 0 -150z"/>
</g>
</svg>
